<svg width="110" viewBox="0 0 566 565" xmlns="http://www.w3.org/2000/svg" xmlns:xlink="http://www.w3.org/1999/xlink"><defs><rect id="a" x="7.038" y="98.37" width="341.18" height="158.52" rx="40"/></defs><g fill="none" fill-rule="evenodd"><circle fill="#0057FF" fill-rule="nonzero" cx="282.83" cy="282.53" r="282.3"/><path d="M236.178 4l137.706 137.705c38.271 38.272 38.271 100.322 0 138.593L271.226 382.956c-38.271 38.271-100.322 38.271-138.593 0L2 252.323C15.416 126.009 112.139 24.571 236.178 4z" fill="#00CEF6" fill-rule="nonzero"/><path d="M149.44 413.09L408.7 153.84a22.22 22.22 0 0 1 31.43 0l51.62 51.61a26.59 26.59 0 0 1 4.29 32l-84.43 148a24.58 24.58 0 0 0 4 29.58l29.34 29.35" stroke="#000" stroke-width="23" stroke-linecap="round" stroke-linejoin="round"/><path d="M533.63 534.34a32.42 32.42 0 0 1-47.39-1.64l-46.44-53.32c-9.516-10.922-8.952-27.346 1.29-37.59 10.246-10.237 26.666-10.8 37.59-1.29L532 486.94a32.44 32.44 0 0 1 1.63 47.4z" fill="#00CEF6" fill-rule="nonzero"/><circle fill="#FFF" fill-rule="nonzero" cx="511.23" cy="512.16" r="13.4"/><rect fill="#00CEF6" fill-rule="nonzero" transform="rotate(-45 276.628 285.63)" x="106.038" y="206.37" width="341.18" height="158.52" rx="40"/><g transform="translate(99 108)"><mask id="b" fill="#fff"><use xlink:href="#a"/></mask><rect fill="#FFF" fill-rule="nonzero" opacity=".3" mask="url(#b)" transform="rotate(-45 143.795 143.8)" x="-26.795" y="64.54" width="341.18" height="158.52" rx="39"/></g><path d="M206.18 300.58l50.95-50.95M164.13 342.63l8.14-8.13" stroke="#FFF" stroke-width="23" stroke-linecap="round"/></g></svg>