<svg width="140" data-name="Layer 1" xmlns="http://www.w3.org/2000/svg" viewBox="0 0 782.52 564.59"><path d="M391.26 0C152.93 0 24.59 229.87 1.81 274.75a16.65 16.65 0 0 0 0 15.09c22.78 44.88 151.12 274.75 389.45 274.75s366.67-229.87 389.46-274.75a16.65 16.65 0 0 0 0-15.09C757.93 229.87 629.59 0 391.26 0z" fill="#0057ff"/><circle cx="391.26" cy="282.3" r="252.07" fill="#fff"/><circle cx="391.26" cy="282.3" r="195.72" fill="#00cef6"/><circle cx="476.15" cy="367.93" r="25.74" fill="#fff"/><path fill="#00cef6" d="M391.2 281.61h.59v-.59l-.59.59zM196.08 281.61v.41a195.12 195.12 0 0 0 56.82 137.89l138.3-138.3z"/><path d="M391.79 281.61v196.13c108.09 0 195.72-87.63 195.72-195.72v-.41z" fill="#fff" opacity=".3"/><circle cx="391.26" cy="282.3" r="53.5"/><path fill="none" stroke="#000" stroke-linecap="round" stroke-miterlimit="10" stroke-width="23" d="M521.89 282.17h-25.8M285.18 282.17h-25.8M298 189.04l18.25 18.24M484.95 188.61l-90.89 90.89M391.76 150.91v25.81"/></svg>