<svg width="160" viewBox="0 0 509 151" xmlns="http://www.w3.org/2000/svg"><g fill="#FFF" fill-rule="nonzero"><path d="M200.01 38.86h11.82v25.06h26.37V38.86h11.82v62.72H238.2V75.13h-26.37v26.45h-11.82zM301.88 91.24a24 24 0 0 1-8 8.5 22.29 22.29 0 0 1-12.31 3.24 23.58 23.58 0 0 1-9.06-1.71 21.57 21.57 0 0 1-12-12 23.82 23.82 0 0 1-1.71-9.15 23.46 23.46 0 0 1 1.67-8.8 22.21 22.21 0 0 1 11.69-12.22 21.5 21.5 0 0 1 9-1.84 23.31 23.31 0 0 1 9.19 1.71 18.7 18.7 0 0 1 6.75 4.73 20.37 20.37 0 0 1 4.12 7.14 27.63 27.63 0 0 1 1.4 8.93v1.05c-.06.33-.09.665-.09 1a4.92 4.92 0 0 0-.09 1h-32.36a11.86 11.86 0 0 0 1.45 4.51 10.63 10.63 0 0 0 2.71 3.15 10.47 10.47 0 0 0 3.55 1.84 13.81 13.81 0 0 0 3.94.57 11.25 11.25 0 0 0 6.53-1.79 13.06 13.06 0 0 0 4.07-4.52l9.55 4.66zM291.45 74.6a7.43 7.43 0 0 0-.74-2.54 9 9 0 0 0-1.93-2.63 10.39 10.39 0 0 0-3.15-2 11.59 11.59 0 0 0-4.51-.79 10.48 10.48 0 0 0-6.48 2.1 11.11 11.11 0 0 0-4 5.87l20.81-.01zM309.93 101.58V38.86h11.48v62.72zM330.87 58.66h10.81v5.17h.7a13 13 0 0 1 4.91-4.64 16.14 16.14 0 0 1 8.23-1.93 18.54 18.54 0 0 1 7.84 1.71 20.94 20.94 0 0 1 6.57 4.73 22.38 22.38 0 0 1 4.51 7.22 26.18 26.18 0 0 1 0 18.4 22.38 22.38 0 0 1-4.51 7.22 20.94 20.94 0 0 1-6.57 4.73 18.54 18.54 0 0 1-7.84 1.71 16.14 16.14 0 0 1-8.23-1.93 13 13 0 0 1-4.91-4.64h-.7l.7 6.13v18h-11.47l-.04-61.88zm22.25 33.72a11 11 0 0 0 4.33-.87 11.42 11.42 0 0 0 3.64-2.46 12.07 12.07 0 0 0 2.54-3.85 13.92 13.92 0 0 0 0-10.16 12.07 12.07 0 0 0-2.54-3.85 11.42 11.42 0 0 0-3.64-2.46 11 11 0 0 0-4.33-.87 11.56 11.56 0 0 0-4.34.83 10.77 10.77 0 0 0-3.63 2.41 11.74 11.74 0 0 0-2.54 3.85 14.26 14.26 0 0 0 0 10.34 11.74 11.74 0 0 0 2.54 3.85 10.77 10.77 0 0 0 3.63 2.41 11.36 11.36 0 0 0 4.34.83zM384.82 38.86h11.86v25.06h26.36V38.86h11.83v62.72h-11.83V75.13h-26.36v26.45h-11.83zM489.85 100.18a36.68 36.68 0 0 1-6.49 2.06 33.56 33.56 0 0 1-7.09.74 33.1 33.1 0 0 1-13-2.54 31.62 31.62 0 0 1-17.25-17.39 34.17 34.17 0 0 1 0-25.66A31.71 31.71 0 0 1 463.26 40a34.59 34.59 0 0 1 26 0 31.71 31.71 0 0 1 17.25 17.39 33 33 0 0 1 2.5 12.83 33.32 33.32 0 0 1-2.72 13.49 31.1 31.1 0 0 1-7.61 10.69l4.82 7.18-8.76 5.87-4.89-7.27zm-13.32-20l8.76-6 6.83 10.34a20.55 20.55 0 0 0 3.73-6.35 22.92 22.92 0 0 0 1.35-8c.037-3.01-.513-6-1.62-8.8a20 20 0 0 0-4.46-6.79 20.62 20.62 0 0 0-6.66-4.38 22 22 0 0 0-16.38 0 20.62 20.62 0 0 0-6.66 4.38 19.86 19.86 0 0 0-4.46 6.79 24.6 24.6 0 0 0 0 17.61 19.82 19.82 0 0 0 4.46 6.78 20.62 20.62 0 0 0 6.66 4.38 21.23 21.23 0 0 0 8.19 1.58 19.07 19.07 0 0 0 3.68-.35 22.11 22.11 0 0 0 3.41-1l-6.83-10.19zM108.73 150.41H42.35c-12.955-.017-23.453-10.515-23.47-23.47V24.28C18.891 11.32 29.39.817 42.35.8h66.38c12.963.011 23.469 10.517 23.48 23.48v102.66c-.017 12.96-10.52 23.459-23.48 23.47zM42.35 7.58c-9.219.011-16.689 7.481-16.7 16.7v102.66c.011 9.219 7.481 16.689 16.7 16.7h66.38c9.219-.011 16.689-7.481 16.7-16.7V24.28c-.011-9.219-7.481-16.689-16.7-16.7H42.35z"/><path d="M126.87 132.27H24.21C11.255 132.253.757 121.755.74 108.8V42.42c.011-12.96 10.51-23.463 23.47-23.48h102.66c12.963.011 23.469 10.517 23.48 23.48v66.38c-.017 12.96-10.52 23.459-23.48 23.47zM24.21 25.71c-9.22.017-16.689 7.49-16.7 16.71v66.38c.011 9.219 7.481 16.689 16.7 16.7h102.66c9.219-.011 16.689-7.481 16.7-16.7V42.42c-.011-9.22-7.48-16.693-16.7-16.71H24.21z"/><path d="M48.68 41.87H61.4v27h28.28v-27h12.73v67.47H89.68V80.88H61.32v28.46H48.68z"/></g></svg>