<svg width="110" viewBox="0 0 565 565" xmlns="http://www.w3.org/2000/svg" xmlns:xlink="http://www.w3.org/1999/xlink"><defs><path id="a" d="M0 0h565v565H0z"/><circle id="c" cx="282.3" cy="282.3" r="282.3"/><path d="M174.72.63A86.88 86.88 0 1 1 .97.63h173.75z" id="e"/></defs><g fill="none" fill-rule="evenodd"><mask id="b" fill="#fff"><use xlink:href="#a"/></mask><g mask="url(#b)"><g transform="translate(-138 -144)"><circle fill="#00CEF6" fill-rule="nonzero" cx="420.52" cy="426.04" r="282.3"/><mask id="d" fill="#fff"><use xlink:href="#c"/></mask><circle fill="#FFF" fill-rule="nonzero" opacity=".3" mask="url(#d)" cx="282.3" cy="282.3" r="282.3"/><path d="M507.94 494.37a86.88 86.88 0 1 1-173.75 0h173.75z" fill="#000" fill-rule="nonzero"/><g transform="translate(195 350)"><mask id="f" fill="#fff"><use xlink:href="#e"/></mask><path d="M151.59 256.5c.67-41.218 34.276-74.281 75.5-74.281s74.83 33.063 75.5 74.281h-151z" fill="#0057FF" fill-rule="nonzero" mask="url(#f)"/></g><path d="M507.94 494.37a86.88 86.88 0 1 1-173.75 0h173.75z" stroke="#000" stroke-width="23" stroke-linecap="round" stroke-linejoin="round"/><path d="M282.48 397.74a44.44 44.44 0 1 1 88.87 0M245.5 319.89s10.78-13.2 35.38-24.72 41.63-11.43 41.63-11.43M559.66 397.74a44.44 44.44 0 1 0-88.87 0M596.64 319.89s-10.78-13.15-35.42-24.72c-24.64-11.57-41.59-11.43-41.59-11.43" stroke="#000" stroke-width="23" stroke-linecap="round"/><circle fill="#0057FF" fill-rule="nonzero" cx="608.61" cy="462.86" r="25.74"/><circle fill="#0057FF" fill-rule="nonzero" cx="232.44" cy="462.86" r="25.74"/></g></g></g></svg>